<svg width="4901" height="1010" viewBox="0 0 4901 1010" fill="none" xmlns="http://www.w3.org/2000/svg">
<path d="M505 1010C783.76 1010 1010 783.76 1010 505C1010 226.24 783.76 0 505 0C226.24 0 0 226.24 0 505C0 783.76 226.24 1010 505 1010Z" fill="#171527"/>
<path fill-rule="evenodd" clip-rule="evenodd" d="M504.905 765.527C648.83 765.527 765.485 648.872 765.485 504.947C765.485 361.022 648.83 244.367 504.905 244.367C360.98 244.367 244.325 361.022 244.325 504.947C244.325 648.872 360.98 765.527 504.905 765.527ZM844.77 504.947C844.77 692.807 692.765 844.812 504.905 844.812C317.045 844.812 165.04 692.807 165.04 504.947C165.04 317.087 317.045 165.082 504.905 165.082C692.765 165.082 844.77 317.087 844.77 504.947Z" fill="url(#paint0_linear_168_1416)"/>
<path d="M1648.63 305.432C1604.19 305.432 1546.12 326.642 1522.38 376.636V313.512H1467.84V696.302H1522.38V487.232C1522.38 393.807 1588.54 359.467 1648.63 359.467C1707.21 359.467 1740.54 402.897 1740.54 473.092V696.302H1795.08V473.597C1796.09 369.567 1741.55 305.432 1648.63 305.432Z" fill="white"/>
<path d="M2506.44 305.432C2462 305.432 2403.92 326.642 2380.19 376.636V313.512H2325.65V696.302H2380.19V487.232C2380.19 393.807 2446.34 359.467 2506.44 359.467C2565.02 359.467 2598.35 402.897 2598.35 473.092V696.302H2652.89V473.597C2653.9 369.567 2599.36 305.432 2506.44 305.432Z" fill="white"/>
<path d="M2754.39 314.006V696.796H2808.42L2807.92 314.006H2754.39Z" fill="white"/>
<path d="M3505.77 503.897C3505.77 382.697 3428 305.938 3319.42 305.938C3210.85 305.938 3127.02 382.697 3127.02 503.897C3127.02 625.097 3210.34 704.382 3319.93 704.382C3396.18 704.382 3462.34 663.982 3493.14 595.807C3475.97 591.767 3454.76 587.727 3438.6 583.687C3414.87 625.602 3370.93 650.347 3319.93 650.347C3249.23 650.347 3192.67 606.917 3183.07 532.177H3505.26C3505.77 525.107 3505.77 511.977 3505.77 503.897ZM3182.57 478.142C3193.17 405.422 3249.23 359.467 3319.42 359.467C3389.11 359.467 3439.61 404.917 3450.22 478.142H3182.57Z" fill="white"/>
<path d="M2210.4 313.504H2156.36V696.294H2210.4V313.504Z" fill="white"/>
<path d="M1350.88 313.504H1296.34V696.294H1350.88V313.504Z" fill="white"/>
<path d="M3014.7 137.297H2960.16V314.047H2898.05V368.587H2960.16V696.837H3014.7V368.587H3076.82V314.047H3014.7V137.297Z" fill="white"/>
<path d="M2048.28 137.297C1948.29 137.297 1915.47 208.502 1915.47 300.412V313.542H1853.35V367.577H1915.47V696.837H1970.01V367.577H2070.5V314.047H1970.01V300.917C1969 250.417 1975.56 189.817 2047.78 189.817H2088.18V137.802L2048.28 137.297Z" fill="white"/>
<path d="M1323.54 137.285H1322.02C1300.31 137.79 1283.65 155.463 1283.65 177.176C1283.65 199.393 1301.32 217.066 1323.54 217.066C1345.76 217.066 1363.43 199.393 1363.43 177.176C1362.92 154.958 1345.25 137.285 1323.54 137.285Z" fill="white"/>
<path d="M2781.16 137.297C2759.45 137.297 2741.77 154.97 2741.27 177.187C2741.27 199.405 2758.94 217.078 2781.16 217.078C2802.87 217.078 2821.05 199.405 2821.05 177.187C2821.05 154.97 2803.38 137.297 2781.16 137.297Z" fill="white"/>
<path d="M2183.48 136.754H2182.47C2160.76 137.259 2144.1 154.932 2144.1 176.644C2144.1 198.862 2161.77 216.535 2183.48 216.535C2205.2 216.535 2223.37 198.862 2223.37 176.644C2222.87 154.932 2205.2 136.754 2183.48 136.754Z" fill="white"/>
<path d="M3807.74 305.432C3757.74 305.432 3709.26 327.652 3689.06 365.527V314.017H3590.08V882.646H3689.06V645.802C3709.26 684.181 3758.25 704.886 3807.74 704.886C3907.22 704.886 3993.58 627.116 3993.58 504.906C3993.58 384.212 3907.22 305.432 3807.74 305.432ZM3791.58 609.441C3739.56 609.441 3691.08 572.576 3690.58 506.421C3690.58 442.286 3736.53 401.382 3791.58 401.382C3846.62 401.382 3891.57 444.306 3891.57 506.421C3891.57 568.536 3846.12 609.441 3791.58 609.441Z" fill="white"/>
<path d="M4348.88 314.017V361.487C4321.1 318.562 4265.05 305.432 4230.71 305.432C4130.72 305.432 4036.79 382.192 4036.79 504.906C4036.79 627.116 4130.22 704.381 4230.71 704.381C4268.08 704.381 4324.13 687.211 4348.88 647.821V696.806H4447.86V314.017H4348.88ZM4244.85 607.421H4243.34C4186.27 607.926 4140.32 561.467 4139.81 504.402C4139.81 442.287 4190.31 401.382 4244.85 401.382C4296.86 401.382 4349.38 439.257 4349.38 504.402C4348.88 570.052 4298.38 607.421 4244.85 607.421Z" fill="white"/>
<path d="M4795.17 312.998L4700.23 550.853L4605.8 312.998H4499.24L4645.69 671.043L4561.36 881.123H4665.89L4900.21 312.998H4795.17Z" fill="white"/>
<defs>
<linearGradient id="paint0_linear_168_1416" x1="504.922" y1="165.118" x2="504.922" y2="844.775" gradientUnits="userSpaceOnUse">
<stop stop-color="#00EE26"/>
<stop offset="1" stop-color="#FFC600"/>
</linearGradient>
</defs>
</svg>

